<?xml version="1.0" encoding="utf-8"?>
<!-- Generator: Adobe Illustrator 18.1.1, SVG Export Plug-In . SVG Version: 6.00 Build 0)  -->
<svg version="1.1" xmlns="http://www.w3.org/2000/svg" xmlns:xlink="http://www.w3.org/1999/xlink" x="0px" y="0px"
	 viewBox="0 0 246 200" enable-background="new 0 0 246 200" xml:space="preserve">
<g id="Layer_1">
</g>
<g id="Layer_2">
	<g>
		<path d="M205.4,144c0,1.1-0.9,2-2,2h-161c-1.1,0-2-0.9-2-2V30c0-1.1,0.9-2,2-2h161c1.1,0,2,0.9,2,2V144z"/>
		<path d="M203.4,30v114h-161V30H203.4 M203.4,26H42.7c-2.2,0-4.3,1.3-4.3,3.5v114.3c0,2.2,2.1,4.2,4.3,4.2h160.7c2.2,0,4-2,4-4.2
			V29.5C207.4,27.3,205.6,26,203.4,26L203.4,26z"/>
	</g>
	<g>
		<path d="M205.3,168c-32.5,0-80.1-0.8-82.1-0.8c-5.1,0.1-50.2,0.4-82.1,0.4c-23.7,0-29.1-0.4-30.2-0.6c-0.7-0.5-1.1-4-0.7-8h226.1
			c0.4,4,0,7.6-0.7,8.2C234.5,167.4,228.9,168,205.3,168C205.3,168,205.3,168,205.3,168z"/>
		<path d="M234.4,161c0.1,0,0,3.2-0.2,4.1c-2.4,0.1-9.3,0.4-28.9,0.4c-31.8,0-77-0.5-82.1-0.5c0,0,0,0,0,0s0,0,0,0
			c-5,0-50.2,0.5-82.1,0.5c-19.6,0-26.5-0.3-28.9-0.4c-0.2-0.9-0.3-2.1-0.2-4.1h110.8h0.7H234.4 M238.1,157H123.6h-0.7H8.4
			c0,0-1.6,10.6,1.9,11.8c1.1,0.4,14.1,0.6,30.9,0.6c32.1,0,78.1-0.5,82.1-0.5c4,0,50,0.6,82.1,0.6c16.8,0,29.7-0.2,30.9-0.6
			C239.6,167.6,238.1,157,238.1,157L238.1,157z"/>
	</g>
	<path fill="#FFFFFF" d="M136.3,161.9H110c-2.6,0-3.5-2.1-3.5-4.7v0c0-2.6,0.9-4.7,3.5-4.7h26.4c2.6,0,3.5,2.1,3.5,4.7v0
		C139.8,159.8,138.9,161.9,136.3,161.9z"/>
	<rect x="66" y="54.8" fill="#FFFFFF" width="51.9" height="40.9"/>
	<rect x="66" y="35.2" fill="#FFFFFF" width="114.1" height="10.6"/>
	<rect x="127.6" y="56" fill="#FFFFFF" width="52.5" height="81"/>
	<rect x="67.1" y="106.7" fill="#FFFFFF" width="50.9" height="31.4"/>
</g>
</svg>
