<?xml version="1.0" encoding="utf-8"?>
<!-- Generator: Adobe Illustrator 18.1.1, SVG Export Plug-In . SVG Version: 6.00 Build 0)  -->
<svg version="1.1" xmlns="http://www.w3.org/2000/svg" xmlns:xlink="http://www.w3.org/1999/xlink" x="0px" y="0px"
	 viewBox="0 0 200 200" enable-background="new 0 0 200 200" xml:space="preserve">
<g id="Layer_1">
</g>
<g id="Layer_2">
	<path stroke="#000000" stroke-width="4" stroke-linecap="round" stroke-linejoin="round" stroke-miterlimit="10" d="M175.9,50.1
		h-9.7c-2.4,0-4.3-1.9-4.3-4.3v-4.2c0-2.4,1.9-4.3,4.3-4.3h9.7c2.4,0,4.3,1.9,4.3,4.3v4.2C180.2,48.1,178.3,50.1,175.9,50.1z"/>
	<polygon stroke="#000000" stroke-width="4" stroke-linecap="round" stroke-linejoin="round" stroke-miterlimit="10" points="
		10,44.4 10,68.1 10,167 187,167 187,44 151.2,44 144.8,27 97.7,27 89.8,43.9 	"/>
	
		<path fill="#FFFFFF" stroke="#FFFFFF" stroke-width="6" stroke-linecap="round" stroke-linejoin="round" stroke-miterlimit="10" d="
		M7,73"/>
	
		<path fill="#FFFFFF" stroke="#FFFFFF" stroke-width="6" stroke-linecap="round" stroke-linejoin="round" stroke-miterlimit="10" d="
		M63,73"/>
	
		<path fill="#FFFFFF" stroke="#FFFFFF" stroke-width="6" stroke-linecap="round" stroke-linejoin="round" stroke-miterlimit="10" d="
		M95,73"/>
	
		<path fill="#FFFFFF" stroke="#FFFFFF" stroke-width="6" stroke-linecap="round" stroke-linejoin="round" stroke-miterlimit="10" d="
		M55,187"/>
	<circle fill="#FFFFFF" cx="122.5" cy="106.3" r="48.6"/>
	
		<circle stroke="#000000" stroke-width="4" stroke-linecap="round" stroke-linejoin="round" stroke-miterlimit="10" cx="123" cy="105.8" r="23.8"/>
	
		<path fill="#FFFFFF" stroke="#000000" stroke-width="4" stroke-linecap="round" stroke-linejoin="round" stroke-miterlimit="10" d="
		M133.5,47.3H109c-2.4,0-4.3-2-4.3-4.3v-4.2c0-2.4,1.9-4.3,4.3-4.3h24.5c2.4,0,4.3,1.9,4.3,4.3V43C137.8,45.4,135.9,47.3,133.5,47.3
		z"/>
	
		<path fill="#FFFFFF" stroke="#000000" stroke-width="3" stroke-linecap="round" stroke-linejoin="round" stroke-miterlimit="10" d="
		M177.4,97.6c-0.9,0-1.8,0.3-2.6,0.7c0.4,2.6,0.7,5.2,0.7,8c0,3.3-0.3,6.6-1,9.7c0.9,0.6,1.8,0.9,2.9,0.9c3.7,0,6.7-4.3,6.7-9.7
		S181.1,97.6,177.4,97.6z"/>
	
		<circle fill="#FFFFFF" stroke="#FFFFFF" stroke-width="4" stroke-linecap="round" stroke-linejoin="round" stroke-miterlimit="10" cx="30.3" cy="60.8" r="6"/>
</g>
</svg>
