<?xml version="1.0" encoding="utf-8"?>
<!-- Generator: Adobe Illustrator 18.1.1, SVG Export Plug-In . SVG Version: 6.00 Build 0)  -->
<svg version="1.1" xmlns="http://www.w3.org/2000/svg" xmlns:xlink="http://www.w3.org/1999/xlink" x="0px" y="0px"
	 viewBox="0 0 200 200" enable-background="new 0 0 200 200" xml:space="preserve">
<g id="Layer_1">
</g>
<g id="Layer_2">
	<rect x="49.3" y="30" width="92.6" height="140.2"/>
	<path d="M152,170.2h-13.4c-4.7,0-8.5-3.8-8.5-8.5V38.5c0-4.7,3.8-8.5,8.5-8.5H152c4.7,0,8.5,3.8,8.5,8.5v123.2
		C160.5,166.4,156.7,170.2,152,170.2z"/>
	<rect x="141.8" y="23.6" fill="#FFFFFF" width="6" height="149.4"/>
	
		<rect x="99.1" y="78.6" transform="matrix(0.9323 -0.3616 0.3616 0.9323 -33.4154 45.1179)" fill="#FFFFFF" stroke="#FFFFFF" stroke-linecap="round" stroke-linejoin="round" stroke-miterlimit="10" width="9.4" height="66.6"/>
	
		<rect x="80.4" y="50.8" transform="matrix(0.9323 -0.3616 0.3616 0.9323 -17.2285 35.0817)" fill="#FFFFFF" stroke="#FFFFFF" stroke-linecap="round" stroke-linejoin="round" stroke-miterlimit="10" width="9.4" height="25.5"/>
	
		<polyline fill="none" stroke="#FFFFFF" stroke-width="2" stroke-linecap="round" stroke-linejoin="round" stroke-miterlimit="10" points="
		97,72.2 90.2,54.7 85.8,53.5 	"/>
</g>
</svg>
