<?xml version="1.0" encoding="utf-8"?>
<!-- Generator: Adobe Illustrator 18.1.1, SVG Export Plug-In . SVG Version: 6.00 Build 0)  -->
<svg version="1.1" xmlns="http://www.w3.org/2000/svg" xmlns:xlink="http://www.w3.org/1999/xlink" x="0px" y="0px"
	 viewBox="0 0 222 52.5" enable-background="new 0 0 222 52.5" xml:space="preserve">
<g id="Guides">
	<g>
		<path d="M44.1,22.6h0.6c1.1,0,1.4-0.4,1.4-1.3V8.8h2.7v12.7c0,2-0.8,3.4-3.8,3.4h-0.9V22.6z"/>
		<path d="M51.5,24.7V8.8h7.3v2.4h-4.6v4.1h3.5v2.4h-3.5v4.7h4.9v2.4H51.5z"/>
		<path d="M61.3,24.7V8.8h2.5l3.3,9.1h0V8.8h2.5v15.9h-2.4l-3.5-9.9h0v9.9H61.3z"/>
		<path d="M72.3,24.7V8.8h2.5l3.3,9.1h0V8.8h2.5v15.9h-2.4l-3.5-9.9h0v9.9H72.3z"/>
		<path d="M83.7,24.7V8.8h2.7v15.9H83.7z"/>
		<path d="M89.4,24.7V8.8H97v2.4h-4.9v4.1h3.7v2.4h-3.7v7H89.4z"/>
		<path d="M99.2,24.7V8.8h7.3v2.4h-4.6v4.1h3.5v2.4h-3.5v4.7h4.9v2.4H99.2z"/>
		<path d="M111.7,24.7h-2.7V8.8h3.8c3.1,0,4.6,1.3,4.6,4.7c0,2.6-1,3.6-1.9,4l2.3,7.2H115l-1.9-6.6c-0.4,0-0.9,0.1-1.4,0.1V24.7z
			 M111.7,16h1c1.5,0,2-0.5,2-2.4c0-1.9-0.6-2.4-2-2.4h-1V16z"/>
		<path d="M124.8,24.7V8.8h2.5l3.3,9.1h0V8.8h2.5v15.9h-2.4l-3.5-9.9h0v9.9H124.8z"/>
		<path d="M135.8,24.7V8.8h7.3v2.4h-4.6v4.1h3.5v2.4h-3.5v4.7h4.9v2.4H135.8z"/>
		<path d="M148.3,24.7h-2.7V8.8h3.8c3.1,0,4.6,1.3,4.6,4.7c0,2.6-1,3.6-1.9,4l2.3,7.2h-2.8l-1.9-6.6c-0.4,0-0.9,0.1-1.4,0.1V24.7z
			 M148.3,16h1c1.5,0,2-0.5,2-2.4c0-1.9-0.6-2.4-2-2.4h-1V16z"/>
		<path d="M158.2,24.7h-2.6l2.9-15.9h3.4l2.9,15.9h-2.6l-0.5-3.5h-3L158.2,24.7z M159.1,18.8h2.2l-1.1-6.8h0L159.1,18.8z"/>
		<path d="M166.4,8.8h4c2.8,0,4.3,1.5,4.3,4.8v6.3c0,3.3-1.5,4.8-4.3,4.8h-4V8.8z M169.1,22.5h0.9c1.5,0,2-0.6,2-2.2v-7
			c0-1.7-0.5-2.2-2-2.2h-0.9V22.5z"/>
		<path fill="#939598" d="M6.3,32.4h2.1c2.4,0,3.9,1.3,3.9,5.8s-1.5,5.8-3.9,5.8H6.3V32.4z M7.5,42.9h0.7c1.8,0,2.9-0.8,2.9-4.7
			c0-4-1.1-4.7-2.9-4.7H7.5V42.9z"/>
		<path fill="#939598" d="M19.6,32.4v1.1h-4v3.9h3v1.1h-3v4.4h4.2v1.1h-5.5V32.4H19.6z"/>
		<path fill="#939598" d="M25.5,35.3c-0.1-1.2-0.6-2.1-1.8-2.1c-1,0-1.6,0.6-1.6,1.5c0,2.6,4.6,2.6,4.6,6.4c0,1.8-1.1,2.9-3,2.9
			c-1.8,0-2.9-1.3-2.9-3.3H22c0,1.4,0.7,2.2,1.9,2.2c1,0,1.7-0.7,1.7-1.9c0-2.6-4.6-2.9-4.6-6.2c0-1.6,1.1-2.7,2.8-2.7
			s2.8,1.1,2.8,3.1H25.5z"/>
		<path fill="#939598" d="M29.8,32.4v11.6h-1.2V32.4H29.8z"/>
		<path fill="#939598" d="M36.8,35.9c-0.1-1.5-0.5-2.7-1.8-2.7c-1.4,0-2.1,1.2-2.1,4.9c0,3.6,0.7,4.9,2.1,4.9c1.2,0,1.8-0.6,1.8-1.8
			v-1.6h-1.6v-1.1h2.8v5.4h-0.8l-0.2-0.9c-0.5,0.6-1.2,1-2.1,1c-2,0-3.3-1.6-3.3-5.9c0-4.4,1.3-5.9,3.3-5.9c2.1,0,2.9,1.9,3.1,3.7
			H36.8z"/>
		<path fill="#939598" d="M41.8,32.4l3,8.5h0v-8.5h1.2v11.6h-1.3l-3.6-10.1h0v10.1h-1.2V32.4H41.8z"/>
		<path fill="#939598" d="M53.3,32.4v1.1h-4v3.9h3v1.1h-3v4.4h4.2v1.1H48V32.4H53.3z"/>
		<path fill="#939598" d="M55.1,32.4h2.8c1.9,0,3.2,1.1,3.2,3c0,1.3-0.6,2.4-1.9,2.8l2,5.7h-1.3L58,38.5l-1.6,0.1v5.4h-1.2V32.4z
			 M56.4,37.4h1.1c1.8,0,2.4-0.7,2.4-2c0-1.3-0.6-2-2.4-2h-1.1V37.4z"/>
		<path fill="#939598" d="M65.5,44.1l3.7-11.9h1.1l-3.7,11.9H65.5z"/>
		<path fill="#939598" d="M74.5,32.4h2.7c1.9,0,3.1,1.2,3.1,3.2c0,1.9-1.2,3.2-3.1,3.2h-1.5v5.2h-1.2V32.4z M75.8,37.7h1.3
			c1.2,0,2-0.7,2-2.1c0-1.4-0.7-2.1-2-2.1h-1.3V37.7z"/>
		<path fill="#939598" d="M83,32.4v5h3.4v-5h1.2v11.6h-1.2v-5.5H83v5.5h-1.2V32.4H83z"/>
		<path fill="#939598" d="M92.7,44.1c-2,0-3.3-1.6-3.3-5.9s1.3-5.9,3.3-5.9c2,0,3.3,1.6,3.3,5.9S94.7,44.1,92.7,44.1z M92.7,33.3
			c-1.1,0-2,1-2,4.9c0,3.9,0.9,4.9,2,4.9c1.1,0,2-1,2-4.9C94.8,34.2,93.9,33.3,92.7,33.3z"/>
		<path fill="#939598" d="M102.8,32.4v1.1h-2.4v10.5h-1.2V33.4h-2.4v-1.1H102.8z"/>
		<path fill="#939598" d="M107,44.1c-2,0-3.3-1.6-3.3-5.9s1.3-5.9,3.3-5.9c2,0,3.3,1.6,3.3,5.9S108.9,44.1,107,44.1z M107,33.3
			c-1.1,0-2,1-2,4.9c0,3.9,0.9,4.9,2,4.9c1.1,0,2-1,2-4.9C109,34.2,108.1,33.3,107,33.3z"/>
		<path fill="#939598" d="M116.8,35.9c-0.1-1.5-0.5-2.7-1.8-2.7c-1.4,0-2.1,1.2-2.1,4.9c0,3.6,0.7,4.9,2.1,4.9
			c1.2,0,1.8-0.6,1.8-1.8v-1.6h-1.6v-1.1h2.8v5.4h-0.8l-0.2-0.9c-0.5,0.6-1.2,1-2.1,1c-2,0-3.3-1.6-3.3-5.9c0-4.4,1.3-5.9,3.3-5.9
			c2.1,0,2.9,1.9,3.1,3.7H116.8z"/>
		<path fill="#939598" d="M120,32.4h2.8c1.9,0,3.2,1.1,3.2,3c0,1.3-0.6,2.4-1.9,2.8l2,5.7h-1.3l-1.9-5.5l-1.6,0.1v5.4H120V32.4z
			 M121.3,37.4h1.1c1.8,0,2.4-0.7,2.4-2c0-1.3-0.6-2-2.4-2h-1.1V37.4z"/>
		<path fill="#939598" d="M131.4,32.4l2.5,11.6h-1.2l-0.7-3.4H129l-0.7,3.4h-1.2l2.5-11.6H131.4z M129.2,39.4h2.6l-1.3-6.2h0
			L129.2,39.4z"/>
		<path fill="#939598" d="M135,32.4h2.7c1.9,0,3.1,1.2,3.1,3.2c0,1.9-1.2,3.2-3.1,3.2h-1.5v5.2H135V32.4z M136.2,37.7h1.3
			c1.2,0,2-0.7,2-2.1c0-1.4-0.7-2.1-2-2.1h-1.3V37.7z"/>
		<path fill="#939598" d="M143.5,32.4v5h3.4v-5h1.2v11.6h-1.2v-5.5h-3.4v5.5h-1.2V32.4H143.5z"/>
		<path fill="#939598" d="M155.5,32.4v1.1h-4v3.9h3v1.1h-3v4.4h4.2v1.1h-5.5V32.4H155.5z"/>
		<path fill="#939598" d="M157.3,32.4h2.8c1.9,0,3.2,1.1,3.2,3c0,1.3-0.6,2.4-1.9,2.8l2,5.7h-1.3l-1.9-5.5l-1.6,0.1v5.4h-1.2V32.4z
			 M158.6,37.4h1.1c1.8,0,2.4-0.7,2.4-2c0-1.3-0.6-2-2.4-2h-1.1V37.4z"/>
		<path fill="#939598" d="M167.7,44.1l3.7-11.9h1.1l-3.7,11.9H167.7z"/>
		<path fill="#939598" d="M178.7,32.4l2,8.7h0l2-8.7h2v11.6h-1.2V33.3h0l-2.4,10.6h-0.8l-2.4-10.6h0v10.6h-1.2V32.4H178.7z"/>
		<path fill="#939598" d="M190,32.4l2.5,11.6h-1.2l-0.7-3.4h-2.9l-0.7,3.4h-1.2l2.5-11.6H190z M187.9,39.4h2.6l-1.3-6.2h0
			L187.9,39.4z"/>
		<path fill="#939598" d="M194.8,32.4v5.9h0l3.2-5.9h1.3l-2.2,4l2.7,7.5h-1.3l-2.1-6.2h0l-1.5,2.7v3.6h-1.2V32.4H194.8z"/>
		<path fill="#939598" d="M206.1,32.4v1.1h-4v3.9h3v1.1h-3v4.4h4.2v1.1h-5.5V32.4H206.1z"/>
		<path fill="#939598" d="M208,32.4h2.8c1.9,0,3.2,1.1,3.2,3c0,1.3-0.6,2.4-1.9,2.8l2,5.7h-1.3l-1.9-5.5l-1.6,0.1v5.4H208V32.4z
			 M209.2,37.4h1.1c1.8,0,2.4-0.7,2.4-2c0-1.3-0.6-2-2.4-2h-1.1V37.4z"/>
	</g>
</g>
<g id="_x38_">
</g>
<g id="Layer_3">
	<g id="Nav">
	</g>
</g>
<g id="_x38_-Nav">
</g>
<g id="overlays">
</g>
<g id="footer">
</g>
</svg>
