<?xml version="1.0" encoding="utf-8"?>
<!-- Generator: Adobe Illustrator 18.1.1, SVG Export Plug-In . SVG Version: 6.00 Build 0)  -->
<svg version="1.1" xmlns="http://www.w3.org/2000/svg" xmlns:xlink="http://www.w3.org/1999/xlink" x="0px" y="0px"
	 viewBox="0 0 438.1 27.2" enable-background="new 0 0 438.1 27.2" xml:space="preserve">
<g id="Guides">
	<g>
		<path d="M5,16.4h0.4c0.8,0,1.1-0.3,1.1-1V6.3h2v9.3c0,1.5-0.6,2.5-2.8,2.5H5V16.4z"/>
		<path d="M10.5,18V6.3h5.4V8h-3.4v3H15v1.7h-2.6v3.4H16V18H10.5z"/>
		<path d="M17.6,18V6.3h1.9l2.4,6.7h0V6.3h1.8V18H22l-2.6-7.3h0V18H17.6z"/>
		<path d="M25.7,18V6.3h1.9L30,13h0V6.3h1.8V18h-1.7l-2.6-7.3h0V18H25.7z"/>
		<path d="M34.1,18V6.3h2V18H34.1z"/>
		<path d="M38.3,18V6.3h5.6V8h-3.6v3H43v1.7h-2.7V18H38.3z"/>
		<path d="M45.5,18V6.3h5.4V8h-3.4v3h2.6v1.7h-2.6v3.4h3.6V18H45.5z"/>
		<path d="M54.7,18h-2V6.3h2.8c2.2,0,3.4,1,3.4,3.4c0,1.9-0.7,2.6-1.4,2.9l1.7,5.3h-2l-1.4-4.8c-0.3,0-0.7,0-1,0V18z M54.7,11.5h0.7
			c1.1,0,1.5-0.4,1.5-1.8c0-1.4-0.4-1.8-1.5-1.8h-0.7V11.5z"/>
		<path d="M64.3,18V6.3h1.9l2.4,6.7h0V6.3h1.8V18h-1.7l-2.6-7.3h0V18H64.3z"/>
		<path d="M72.4,18V6.3h5.4V8h-3.4v3H77v1.7h-2.6v3.4H78V18H72.4z"/>
		<path d="M81.6,18h-2V6.3h2.8c2.2,0,3.4,1,3.4,3.4c0,1.9-0.7,2.6-1.4,2.9l1.7,5.3h-2l-1.4-4.8c-0.3,0-0.7,0-1,0V18z M81.6,11.5h0.7
			c1.1,0,1.5-0.4,1.5-1.8c0-1.4-0.4-1.8-1.5-1.8h-0.7V11.5z"/>
		<path d="M88.8,18h-1.9l2.2-11.7h2.5L93.7,18h-1.9l-0.4-2.6h-2.2L88.8,18z M89.5,13.6h1.6l-0.8-5h0L89.5,13.6z"/>
		<path d="M94.9,6.3h3c2.1,0,3.2,1.1,3.2,3.5v4.6c0,2.4-1.1,3.5-3.2,3.5h-3V6.3z M96.9,16.3h0.7c1.1,0,1.4-0.4,1.4-1.6V9.6
			c0-1.2-0.4-1.6-1.4-1.6h-0.7V16.3z"/>
		<path fill="#939598" d="M110.2,6.3h2.2c2.5,0,3.9,1.4,3.9,5.8c0,4.5-1.5,5.8-3.9,5.8h-2.2V6.3z M111.5,16.9h0.7
			c1.8,0,2.9-0.8,2.9-4.8c0-4-1.1-4.8-2.9-4.8h-0.7V16.9z"/>
		<path fill="#939598" d="M123.6,6.3v1.1h-4.1v4h3v1.1h-3v4.5h4.3V18h-5.5V6.3H123.6z"/>
		<path fill="#939598" d="M129.7,9.3c-0.1-1.2-0.6-2.1-1.8-2.1c-1,0-1.6,0.6-1.6,1.5c0,2.6,4.7,2.7,4.7,6.4c0,1.9-1.1,3-3,3
			c-1.8,0-2.9-1.3-3-3.3h1.2c0,1.4,0.7,2.2,1.9,2.2c1.1,0,1.7-0.7,1.7-1.9c0-2.7-4.7-3-4.7-6.3c0-1.6,1.1-2.7,2.8-2.7
			c1.7,0,2.8,1.1,2.9,3.2H129.7z"/>
		<path fill="#939598" d="M134,6.3V18h-1.3V6.3H134z"/>
		<path fill="#939598" d="M141.1,9.9c-0.1-1.5-0.5-2.7-1.8-2.7c-1.4,0-2.1,1.3-2.1,4.9c0,3.7,0.7,4.9,2.1,4.9c1.2,0,1.8-0.6,1.8-1.8
			v-1.6h-1.6v-1.1h2.8V18h-0.8l-0.2-0.9c-0.5,0.6-1.2,1-2.1,1c-2.1,0-3.3-1.6-3.3-6c0-4.4,1.3-6,3.3-6c2.2,0,2.9,1.9,3.1,3.8H141.1z
			"/>
		<path fill="#939598" d="M146.1,6.3l3,8.6h0V6.3h1.3V18h-1.4l-3.6-10.2h0V18h-1.3V6.3H146.1z"/>
		<path fill="#939598" d="M157.8,6.3v1.1h-4.1v4h3v1.1h-3v4.5h4.3V18h-5.5V6.3H157.8z"/>
		<path fill="#939598" d="M159.6,6.3h2.8c1.9,0,3.2,1.1,3.2,3c0,1.3-0.6,2.4-1.9,2.9l2,5.8h-1.3l-1.9-5.5l-1.6,0.1V18h-1.3V6.3z
			 M160.9,11.4h1.1c1.8,0,2.4-0.7,2.4-2s-0.6-2-2.4-2h-1.1V11.4z"/>
		<path fill="#939598" d="M170,18.1l3.8-12h1.1l-3.8,12H170z"/>
		<path fill="#939598" d="M179.2,6.3h2.7c1.9,0,3.1,1.3,3.1,3.2c0,1.9-1.2,3.2-3.1,3.2h-1.5V18h-1.3V6.3z M180.5,11.6h1.3
			c1.3,0,2-0.7,2-2.1c0-1.5-0.7-2.1-2-2.1h-1.3V11.6z"/>
		<path fill="#939598" d="M187.8,6.3v5h3.4v-5h1.3V18h-1.3v-5.6h-3.4V18h-1.3V6.3H187.8z"/>
		<path fill="#939598" d="M197.6,18.1c-2,0-3.3-1.6-3.3-6c0-4.4,1.3-6,3.3-6c2,0,3.3,1.6,3.3,6C200.9,16.5,199.6,18.1,197.6,18.1z
			 M197.6,7.2c-1.1,0-2,1-2,4.9c0,4,0.9,4.9,2,4.9c1.1,0,2-1,2-4.9C199.6,8.1,198.7,7.2,197.6,7.2z"/>
		<path fill="#939598" d="M207.8,6.3v1.1h-2.4V18h-1.3V7.3h-2.4V6.3H207.8z"/>
		<path fill="#939598" d="M212,18.1c-2,0-3.3-1.6-3.3-6c0-4.4,1.3-6,3.3-6c2,0,3.3,1.6,3.3,6C215.3,16.5,213.9,18.1,212,18.1z
			 M212,7.2c-1.1,0-2,1-2,4.9c0,4,0.9,4.9,2,4.9c1.1,0,2-1,2-4.9C214,8.1,213.1,7.2,212,7.2z"/>
		<path fill="#939598" d="M221.9,9.9c-0.1-1.5-0.5-2.7-1.8-2.7c-1.4,0-2.1,1.3-2.1,4.9c0,3.7,0.7,4.9,2.1,4.9c1.2,0,1.8-0.6,1.8-1.8
			v-1.6h-1.6v-1.1h2.8V18h-0.8l-0.2-0.9c-0.5,0.6-1.2,1-2.1,1c-2.1,0-3.3-1.6-3.3-6c0-4.4,1.3-6,3.3-6c2.2,0,2.9,1.9,3.1,3.8H221.9z
			"/>
		<path fill="#939598" d="M225.2,6.3h2.8c1.9,0,3.2,1.1,3.2,3c0,1.3-0.6,2.4-1.9,2.9l2,5.8H230l-1.9-5.5l-1.6,0.1V18h-1.3V6.3z
			 M226.4,11.4h1.1c1.8,0,2.4-0.7,2.4-2s-0.6-2-2.4-2h-1.1V11.4z"/>
		<path fill="#939598" d="M236.7,6.3l2.6,11.7H238l-0.7-3.5h-3l-0.7,3.5h-1.3l2.6-11.7H236.7z M234.5,13.4h2.6l-1.3-6.3h0
			L234.5,13.4z"/>
		<path fill="#939598" d="M240.3,6.3h2.7c1.9,0,3.1,1.3,3.1,3.2c0,1.9-1.2,3.2-3.1,3.2h-1.5V18h-1.3V6.3z M241.5,11.6h1.3
			c1.3,0,2-0.7,2-2.1c0-1.5-0.7-2.1-2-2.1h-1.3V11.6z"/>
		<path fill="#939598" d="M248.9,6.3v5h3.4v-5h1.3V18h-1.3v-5.6h-3.4V18h-1.3V6.3H248.9z"/>
		<path fill="#939598" d="M261,6.3v1.1H257v4h3v1.1h-3v4.5h4.3V18h-5.5V6.3H261z"/>
		<path fill="#939598" d="M262.9,6.3h2.8c1.9,0,3.2,1.1,3.2,3c0,1.3-0.6,2.4-1.9,2.9l2,5.8h-1.3l-1.9-5.5l-1.6,0.1V18h-1.3V6.3z
			 M264.1,11.4h1.1c1.8,0,2.4-0.7,2.4-2s-0.6-2-2.4-2h-1.1V11.4z"/>
		<path fill="#939598" d="M273.3,18.1l3.8-12h1.1l-3.8,12H273.3z"/>
		<path fill="#939598" d="M284.5,6.3l2,8.8h0l2-8.8h2V18h-1.2V7.2h0L286.9,18h-0.8l-2.4-10.7h0V18h-1.2V6.3H284.5z"/>
		<path fill="#939598" d="M295.9,6.3l2.6,11.7h-1.3l-0.7-3.5h-3l-0.7,3.5h-1.3l2.6-11.7H295.9z M293.7,13.4h2.6l-1.3-6.3h0
			L293.7,13.4z"/>
		<path fill="#939598" d="M300.8,6.3v6h0l3.3-6h1.4l-2.3,4.1l2.7,7.6h-1.4l-2.2-6.3h0l-1.5,2.7V18h-1.3V6.3H300.8z"/>
		<path fill="#939598" d="M312.2,6.3v1.1h-4.1v4h3v1.1h-3v4.5h4.3V18h-5.5V6.3H312.2z"/>
		<path fill="#939598" d="M314.1,6.3h2.8c1.9,0,3.2,1.1,3.2,3c0,1.3-0.6,2.4-1.9,2.9l2,5.8h-1.3l-1.9-5.5l-1.6,0.1V18h-1.3V6.3z
			 M315.3,11.4h1.1c1.8,0,2.4-0.7,2.4-2s-0.6-2-2.4-2h-1.1V11.4z"/>
	</g>
</g>
<g id="_x38_">
</g>
<g id="Layer_3">
	<g id="Nav">
	</g>
</g>
<g id="_x38_-Nav">
</g>
<g id="overlays">
</g>
<g id="footer">
</g>
</svg>
