<?xml version="1.0" encoding="utf-8"?>
<!-- Generator: Adobe Illustrator 18.1.1, SVG Export Plug-In . SVG Version: 6.00 Build 0)  -->
<svg version="1.1" xmlns="http://www.w3.org/2000/svg" xmlns:xlink="http://www.w3.org/1999/xlink" x="0px" y="0px"
	 viewBox="0 0 438.1 27.2" enable-background="new 0 0 438.1 27.2" xml:space="preserve">
<g id="Guides">
	<g>
		<path d="M5,20.1h0.6c1.1,0,1.4-0.4,1.4-1.3V6.3h2.7V19c0,2-0.8,3.4-3.8,3.4H5V20.1z"/>
		<path d="M12.4,22.2V6.3h7.3v2.4h-4.6v4.1h3.5v2.4h-3.5v4.7H20v2.4H12.4z"/>
		<path d="M22.2,22.2V6.3h2.5l3.3,9.1h0V6.3h2.5v15.9h-2.4l-3.5-9.9h0v9.9H22.2z"/>
		<path d="M33.2,22.2V6.3h2.5l3.3,9.1h0V6.3h2.5v15.9h-2.4l-3.5-9.9h0v9.9H33.2z"/>
		<path d="M44.5,22.2V6.3h2.7v15.9H44.5z"/>
		<path d="M50.3,22.2V6.3h7.6v2.4H53v4.1h3.7v2.4H53v7H50.3z"/>
		<path d="M60.1,22.2V6.3h7.3v2.4h-4.6v4.1h3.5v2.4h-3.5v4.7h4.9v2.4H60.1z"/>
		<path d="M72.6,22.2h-2.7V6.3h3.8c3.1,0,4.6,1.3,4.6,4.7c0,2.6-1,3.6-1.9,4l2.3,7.2h-2.8L74,15.6c-0.4,0-0.9,0.1-1.4,0.1V22.2z
			 M72.6,13.5h1c1.5,0,2-0.5,2-2.4c0-1.9-0.6-2.4-2-2.4h-1V13.5z"/>
		<path d="M85.7,22.2V6.3h2.5l3.3,9.1h0V6.3h2.5v15.9h-2.4l-3.5-9.9h0v9.9H85.7z"/>
		<path d="M96.7,22.2V6.3h7.3v2.4h-4.6v4.1h3.5v2.4h-3.5v4.7h4.9v2.4H96.7z"/>
		<path d="M109.2,22.2h-2.7V6.3h3.8c3.1,0,4.6,1.3,4.6,4.7c0,2.6-1,3.6-1.9,4l2.3,7.2h-2.8l-1.9-6.6c-0.4,0-0.9,0.1-1.4,0.1V22.2z
			 M109.2,13.5h1c1.5,0,2-0.5,2-2.4c0-1.9-0.6-2.4-2-2.4h-1V13.5z"/>
		<path d="M119.1,22.2h-2.6l2.9-15.9h3.4l2.9,15.9H123l-0.5-3.5h-3L119.1,22.2z M119.9,16.3h2.2l-1.1-6.8h0L119.9,16.3z"/>
		<path d="M127.2,6.3h4c2.8,0,4.3,1.5,4.3,4.8v6.3c0,3.3-1.5,4.8-4.3,4.8h-4V6.3z M130,20h0.9c1.5,0,2-0.6,2-2.2v-7
			c0-1.7-0.5-2.2-2-2.2H130V20z"/>
		<path fill="#939598" d="M148.1,6.3h2.9c3.3,0,5.4,1.8,5.4,7.9c0,6.1-2,7.9-5.4,7.9h-2.9V6.3z M149.9,20.8h0.9c2.5,0,4-1.1,4-6.5
			c0-5.4-1.5-6.5-4-6.5h-0.9V20.8z"/>
		<path fill="#939598" d="M166.4,6.3v1.5h-5.5v5.4h4.1v1.5h-4.1v6.1h5.8v1.5h-7.5V6.3H166.4z"/>
		<path fill="#939598" d="M174.6,10.4c-0.1-1.6-0.8-2.9-2.4-2.9c-1.3,0-2.2,0.9-2.2,2.1c0,3.6,6.4,3.6,6.4,8.7c0,2.5-1.5,4-4.1,4
			c-2.5,0-4-1.8-4-4.5h1.6c0,1.9,0.9,3,2.6,3c1.4,0,2.4-0.9,2.4-2.6c0-3.6-6.4-4-6.4-8.6c0-2.2,1.5-3.7,3.8-3.7
			c2.3,0,3.8,1.5,3.9,4.3H174.6z"/>
		<path fill="#939598" d="M180.5,6.3v15.9h-1.7V6.3H180.5z"/>
		<path fill="#939598" d="M190.2,11.2c-0.1-2.1-0.7-3.7-2.5-3.7c-1.9,0-2.8,1.7-2.8,6.7c0,5,0.9,6.7,2.8,6.7c1.6,0,2.5-0.9,2.5-2.5
			v-2.2H188v-1.5h3.9v7.4h-1.1l-0.2-1.2c-0.7,0.9-1.6,1.4-2.9,1.4c-2.8,0-4.6-2.2-4.6-8.2c0-6,1.8-8.2,4.6-8.2c2.9,0,4,2.6,4.2,5.1
			H190.2z"/>
		<path fill="#939598" d="M197,6.3l4.1,11.7h0V6.3h1.7v15.9H201l-4.9-13.8h0v13.8h-1.7V6.3H197z"/>
		<path fill="#939598" d="M212.8,6.3v1.5h-5.5v5.4h4.1v1.5h-4.1v6.1h5.8v1.5h-7.5V6.3H212.8z"/>
		<path fill="#939598" d="M215.3,6.3h3.8c2.6,0,4.4,1.5,4.4,4.1c0,1.8-0.8,3.3-2.6,3.9l2.7,7.9h-1.8l-2.6-7.5l-2.2,0.1v7.4h-1.7V6.3
			z M217,13.3h1.5c2.5,0,3.3-1,3.3-2.8s-0.8-2.8-3.3-2.8H217V13.3z"/>
		<path fill="#939598" d="M229.5,22.4l5.1-16.3h1.5L231,22.4H229.5z"/>
		<path fill="#939598" d="M242,6.3h3.7c2.6,0,4.2,1.7,4.2,4.4c0,2.6-1.7,4.4-4.2,4.4h-2v7.2H242V6.3z M243.7,13.6h1.8
			c1.7,0,2.7-0.9,2.7-2.9c0-2-1-2.9-2.7-2.9h-1.8V13.6z"/>
		<path fill="#939598" d="M253.7,6.3v6.9h4.7V6.3h1.7v15.9h-1.7v-7.6h-4.7v7.6H252V6.3H253.7z"/>
		<path fill="#939598" d="M267,22.4c-2.7,0-4.5-2.2-4.5-8.2c0-5.9,1.8-8.2,4.5-8.2c2.7,0,4.5,2.2,4.5,8.2
			C271.5,20.2,269.7,22.4,267,22.4z M267,7.6c-1.5,0-2.8,1.3-2.8,6.7c0,5.4,1.2,6.7,2.8,6.7c1.5,0,2.8-1.3,2.8-6.7
			C269.8,8.9,268.6,7.6,267,7.6z"/>
		<path fill="#939598" d="M280.9,6.3v1.5h-3.3v14.4h-1.7V7.8h-3.3V6.3H280.9z"/>
		<path fill="#939598" d="M286.6,22.4c-2.7,0-4.5-2.2-4.5-8.2c0-5.9,1.8-8.2,4.5-8.2c2.7,0,4.5,2.2,4.5,8.2
			C291.1,20.2,289.3,22.4,286.6,22.4z M286.6,7.6c-1.5,0-2.8,1.3-2.8,6.7c0,5.4,1.2,6.7,2.8,6.7c1.5,0,2.8-1.3,2.8-6.7
			C289.4,8.9,288.1,7.6,286.6,7.6z"/>
		<path fill="#939598" d="M300.1,11.2c-0.1-2.1-0.7-3.7-2.5-3.7c-1.9,0-2.8,1.7-2.8,6.7c0,5,0.9,6.7,2.8,6.7c1.6,0,2.5-0.9,2.5-2.5
			v-2.2H298v-1.5h3.9v7.4h-1.1l-0.2-1.2c-0.7,0.9-1.6,1.4-2.9,1.4c-2.8,0-4.6-2.2-4.6-8.2c0-6,1.8-8.2,4.6-8.2c2.9,0,4,2.6,4.2,5.1
			H300.1z"/>
		<path fill="#939598" d="M304.5,6.3h3.8c2.6,0,4.4,1.5,4.4,4.1c0,1.8-0.8,3.3-2.6,3.9l2.7,7.9h-1.8l-2.6-7.5l-2.2,0.1v7.4h-1.7V6.3
			z M306.3,13.3h1.5c2.5,0,3.3-1,3.3-2.8s-0.8-2.8-3.3-2.8h-1.5V13.3z"/>
		<path fill="#939598" d="M320.2,6.3l3.5,15.9h-1.7l-0.9-4.7h-4l-0.9,4.7h-1.7l3.5-15.9H320.2z M317.2,16.1h3.6L319,7.5h0
			L317.2,16.1z"/>
		<path fill="#939598" d="M325.1,6.3h3.7c2.6,0,4.2,1.7,4.2,4.4c0,2.6-1.7,4.4-4.2,4.4h-2v7.2h-1.7V6.3z M326.8,13.6h1.8
			c1.7,0,2.7-0.9,2.7-2.9c0-2-1-2.9-2.7-2.9h-1.8V13.6z"/>
		<path fill="#939598" d="M336.8,6.3v6.9h4.7V6.3h1.7v15.9h-1.7v-7.6h-4.7v7.6h-1.7V6.3H336.8z"/>
		<path fill="#939598" d="M353.3,6.3v1.5h-5.5v5.4h4.1v1.5h-4.1v6.1h5.8v1.5h-7.5V6.3H353.3z"/>
		<path fill="#939598" d="M355.8,6.3h3.8c2.6,0,4.4,1.5,4.4,4.1c0,1.8-0.8,3.3-2.6,3.9l2.7,7.9h-1.8l-2.6-7.5l-2.2,0.1v7.4h-1.7V6.3
			z M357.6,13.3h1.5c2.5,0,3.3-1,3.3-2.8s-0.8-2.8-3.3-2.8h-1.5V13.3z"/>
		<path fill="#939598" d="M370.1,22.4l5.1-16.3h1.5l-5.1,16.3H370.1z"/>
		<path fill="#939598" d="M385.2,6.3l2.8,12h0l2.7-12h2.7v15.9h-1.6V7.7h0l-3.3,14.6h-1.1l-3.3-14.6h0v14.6h-1.6V6.3H385.2z"/>
		<path fill="#939598" d="M400.8,6.3l3.5,15.9h-1.7l-0.9-4.7h-4l-0.9,4.7h-1.7l3.5-15.9H400.8z M397.8,16.1h3.6l-1.8-8.5h0
			L397.8,16.1z"/>
		<path fill="#939598" d="M407.4,6.3v8.1h0l4.4-8.1h1.8l-3.1,5.5l3.7,10.3h-1.8l-2.9-8.6h0l-2.1,3.7v4.9h-1.7V6.3H407.4z"/>
		<path fill="#939598" d="M423,6.3v1.5h-5.5v5.4h4.1v1.5h-4.1v6.1h5.8v1.5h-7.5V6.3H423z"/>
		<path fill="#939598" d="M425.5,6.3h3.8c2.6,0,4.4,1.5,4.4,4.1c0,1.8-0.8,3.3-2.6,3.9l2.7,7.9H432l-2.6-7.5l-2.2,0.1v7.4h-1.7V6.3z
			 M427.2,13.3h1.5c2.5,0,3.3-1,3.3-2.8s-0.8-2.8-3.3-2.8h-1.5V13.3z"/>
	</g>
</g>
<g id="_x38_">
</g>
<g id="Layer_3">
	<g id="Nav">
	</g>
</g>
<g id="_x38_-Nav">
</g>
<g id="overlays">
</g>
<g id="footer">
</g>
</svg>
