<?xml version="1.0" encoding="utf-8"?>
<!-- Generator: Adobe Illustrator 18.1.1, SVG Export Plug-In . SVG Version: 6.00 Build 0)  -->
<svg version="1.1" xmlns="http://www.w3.org/2000/svg" xmlns:xlink="http://www.w3.org/1999/xlink" x="0px" y="0px"
	 viewBox="0 0 438.1 27.2" enable-background="new 0 0 438.1 27.2" xml:space="preserve">
<g id="Guides">
	<g>
		<path d="M5,17.2h0.5c0.8,0,1.1-0.4,1.1-1.1V6.3h2.2v10.1c0,1.6-0.6,2.7-3,2.7H5V17.2z"/>
		<path d="M10.9,18.9V6.3h5.8v1.9h-3.6v3.3h2.8v1.9h-2.8V17H17v1.9H10.9z"/>
		<path d="M18.7,18.9V6.3h2l2.6,7.2h0V6.3h2v12.6h-1.9L20.7,11h0v7.9H18.7z"/>
		<path d="M27.4,18.9V6.3h2l2.6,7.2h0V6.3h2v12.6h-1.9L29.4,11h0v7.9H27.4z"/>
		<path d="M36.5,18.9V6.3h2.2v12.6H36.5z"/>
		<path d="M41.1,18.9V6.3h6.1v1.9h-3.9v3.3h2.9v1.9h-2.9v5.6H41.1z"/>
		<path d="M48.8,18.9V6.3h5.8v1.9H51v3.3h2.8v1.9H51V17h3.9v1.9H48.8z"/>
		<path d="M58.8,18.9h-2.2V6.3h3c2.4,0,3.7,1,3.7,3.7c0,2-0.8,2.9-1.5,3.2l1.8,5.7h-2.2l-1.5-5.2c-0.3,0-0.7,0.1-1.1,0.1V18.9z
			 M58.8,12h0.8c1.2,0,1.6-0.4,1.6-1.9c0-1.5-0.4-1.9-1.6-1.9h-0.8V12z"/>
		<path d="M69.3,18.9V6.3h2l2.6,7.2h0V6.3h2v12.6H74L71.3,11h0v7.9H69.3z"/>
		<path d="M78,18.9V6.3h5.8v1.9h-3.6v3.3H83v1.9h-2.8V17h3.9v1.9H78z"/>
		<path d="M88,18.9h-2.2V6.3h3c2.4,0,3.7,1,3.7,3.7c0,2-0.8,2.9-1.5,3.2l1.8,5.7h-2.2l-1.5-5.2c-0.3,0-0.7,0.1-1.1,0.1V18.9z M88,12
			h0.8c1.2,0,1.6-0.4,1.6-1.9c0-1.5-0.4-1.9-1.6-1.9H88V12z"/>
		<path d="M95.8,18.9h-2.1l2.3-12.6h2.7l2.3,12.6H99l-0.4-2.8h-2.4L95.8,18.9z M96.5,14.2h1.8l-0.9-5.4h0L96.5,14.2z"/>
		<path d="M102.3,6.3h3.2c2.2,0,3.4,1.2,3.4,3.8v5c0,2.6-1.2,3.8-3.4,3.8h-3.2V6.3z M104.5,17.1h0.8c1.2,0,1.6-0.4,1.6-1.8V9.8
			c0-1.3-0.4-1.8-1.6-1.8h-0.8V17.1z"/>
		<path fill="#939598" d="M119,6.3h2.3c2.7,0,4.3,1.5,4.3,6.3c0,4.9-1.6,6.3-4.3,6.3H119V6.3z M120.4,17.8h0.7c2,0,3.2-0.8,3.2-5.2
			c0-4.3-1.2-5.2-3.2-5.2h-0.7V17.8z"/>
		<path fill="#939598" d="M133.5,6.3v1.2h-4.4v4.3h3.3v1.2h-3.3v4.9h4.6v1.2h-6V6.3H133.5z"/>
		<path fill="#939598" d="M140,9.5c-0.1-1.3-0.6-2.3-1.9-2.3c-1.1,0-1.7,0.7-1.7,1.7c0,2.9,5.1,2.9,5.1,7c0,2-1.2,3.2-3.2,3.2
			c-2,0-3.2-1.5-3.2-3.6h1.3c0,1.5,0.7,2.4,2.1,2.4c1.1,0,1.9-0.7,1.9-2.1c0-2.9-5.1-3.2-5.1-6.8c0-1.8,1.2-2.9,3-2.9
			c1.8,0,3,1.2,3.1,3.4H140z"/>
		<path fill="#939598" d="M144.8,6.3v12.6h-1.4V6.3H144.8z"/>
		<path fill="#939598" d="M152.4,10.2c-0.1-1.6-0.6-2.9-2-2.9c-1.5,0-2.3,1.4-2.3,5.3c0,4,0.7,5.3,2.3,5.3c1.3,0,2-0.7,2-2v-1.8
			h-1.7V13h3.1v5.9h-0.9l-0.2-0.9c-0.5,0.7-1.3,1.1-2.3,1.1c-2.2,0-3.6-1.7-3.6-6.5c0-4.8,1.4-6.5,3.6-6.5c2.3,0,3.2,2,3.3,4.1
			H152.4z"/>
		<path fill="#939598" d="M157.9,6.3l3.3,9.3h0V6.3h1.4v12.6h-1.5l-3.9-11h0v11h-1.4V6.3H157.9z"/>
		<path fill="#939598" d="M170.5,6.3v1.2h-4.4v4.3h3.3v1.2h-3.3v4.9h4.6v1.2h-6V6.3H170.5z"/>
		<path fill="#939598" d="M172.5,6.3h3c2,0,3.5,1.2,3.5,3.3c0,1.4-0.6,2.6-2,3.1l2.1,6.3h-1.4l-2-6l-1.8,0.1v5.9h-1.4V6.3z
			 M173.8,11.8h1.2c2,0,2.6-0.8,2.6-2.2S177,7.4,175,7.4h-1.2V11.8z"/>
		<path fill="#939598" d="M183.8,19.1l4.1-13h1.2l-4.1,13H183.8z"/>
		<path fill="#939598" d="M193.7,6.3h3c2,0,3.4,1.4,3.4,3.5c0,2.1-1.3,3.5-3.4,3.5h-1.6v5.7h-1.4V6.3z M195.1,12.1h1.4
			c1.4,0,2.2-0.7,2.2-2.3c0-1.6-0.8-2.3-2.2-2.3h-1.4V12.1z"/>
		<path fill="#939598" d="M203,6.3v5.5h3.7V6.3h1.4v12.6h-1.4v-6H203v6h-1.4V6.3H203z"/>
		<path fill="#939598" d="M213.6,19.1c-2.1,0-3.6-1.8-3.6-6.5c0-4.7,1.4-6.5,3.6-6.5c2.1,0,3.6,1.8,3.6,6.5
			C217.2,17.3,215.8,19.1,213.6,19.1z M213.6,7.3c-1.2,0-2.2,1.1-2.2,5.3c0,4.3,1,5.3,2.2,5.3c1.2,0,2.2-1.1,2.2-5.3
			C215.9,8.3,214.9,7.3,213.6,7.3z"/>
		<path fill="#939598" d="M224.7,6.3v1.2h-2.6v11.5h-1.4V7.4h-2.6V6.3H224.7z"/>
		<path fill="#939598" d="M229.2,19.1c-2.1,0-3.6-1.8-3.6-6.5c0-4.7,1.4-6.5,3.6-6.5c2.1,0,3.6,1.8,3.6,6.5
			C232.8,17.3,231.4,19.1,229.2,19.1z M229.2,7.3c-1.2,0-2.2,1.1-2.2,5.3c0,4.3,1,5.3,2.2,5.3c1.2,0,2.2-1.1,2.2-5.3
			C231.4,8.3,230.4,7.3,229.2,7.3z"/>
		<path fill="#939598" d="M240,10.2c-0.1-1.6-0.6-2.9-2-2.9c-1.5,0-2.3,1.4-2.3,5.3c0,4,0.7,5.3,2.3,5.3c1.3,0,2-0.7,2-2v-1.8h-1.7
			V13h3.1v5.9h-0.9l-0.2-0.9c-0.5,0.7-1.3,1.1-2.3,1.1c-2.2,0-3.6-1.7-3.6-6.5c0-4.8,1.4-6.5,3.6-6.5c2.3,0,3.2,2,3.3,4.1H240z"/>
		<path fill="#939598" d="M243.5,6.3h3c2,0,3.5,1.2,3.5,3.3c0,1.4-0.6,2.6-2,3.1l2.1,6.3h-1.4l-2-6l-1.8,0.1v5.9h-1.4V6.3z
			 M244.9,11.8h1.2c2,0,2.6-0.8,2.6-2.2s-0.6-2.2-2.6-2.2h-1.2V11.8z"/>
		<path fill="#939598" d="M256,6.3l2.8,12.6h-1.4l-0.8-3.7h-3.2l-0.8,3.7h-1.4l2.8-12.6H256z M253.6,14h2.8L255,7.2h0L253.6,14z"/>
		<path fill="#939598" d="M259.9,6.3h3c2,0,3.4,1.4,3.4,3.5c0,2.1-1.3,3.5-3.4,3.5h-1.6v5.7h-1.4V6.3z M261.2,12.1h1.4
			c1.4,0,2.2-0.7,2.2-2.3c0-1.6-0.8-2.3-2.2-2.3h-1.4V12.1z"/>
		<path fill="#939598" d="M269.2,6.3v5.5h3.7V6.3h1.4v12.6h-1.4v-6h-3.7v6h-1.4V6.3H269.2z"/>
		<path fill="#939598" d="M282.4,6.3v1.2H278v4.3h3.3v1.2H278v4.9h4.6v1.2h-6V6.3H282.4z"/>
		<path fill="#939598" d="M284.4,6.3h3c2,0,3.5,1.2,3.5,3.3c0,1.4-0.6,2.6-2,3.1l2.1,6.3h-1.4l-2-6l-1.8,0.1v5.9h-1.4V6.3z
			 M285.7,11.8h1.2c2,0,2.6-0.8,2.6-2.2s-0.6-2.2-2.6-2.2h-1.2V11.8z"/>
		<path fill="#939598" d="M295.7,19.1l4.1-13h1.2l-4.1,13H295.7z"/>
		<path fill="#939598" d="M307.8,6.3l2.2,9.6h0l2.2-9.6h2.2v12.6h-1.3V7.3h0l-2.6,11.6h-0.9l-2.6-11.6h0v11.6h-1.3V6.3H307.8z"/>
		<path fill="#939598" d="M320.2,6.3l2.8,12.6h-1.4l-0.8-3.7h-3.2l-0.8,3.7h-1.4l2.8-12.6H320.2z M317.8,14h2.8l-1.4-6.8h0L317.8,14
			z"/>
		<path fill="#939598" d="M325.4,6.3v6.4h0l3.5-6.4h1.5l-2.5,4.4l2.9,8.2h-1.5l-2.3-6.8h0l-1.6,2.9v3.9h-1.4V6.3H325.4z"/>
		<path fill="#939598" d="M337.8,6.3v1.2h-4.4v4.3h3.3v1.2h-3.3v4.9h4.6v1.2h-6V6.3H337.8z"/>
		<path fill="#939598" d="M339.8,6.3h3c2,0,3.5,1.2,3.5,3.3c0,1.4-0.6,2.6-2,3.1l2.1,6.3H345l-2-6l-1.8,0.1v5.9h-1.4V6.3z
			 M341.2,11.8h1.2c2,0,2.6-0.8,2.6-2.2s-0.6-2.2-2.6-2.2h-1.2V11.8z"/>
	</g>
</g>
<g id="_x38_">
</g>
<g id="Layer_3">
	<g id="Nav">
	</g>
</g>
<g id="_x38_-Nav">
</g>
<g id="overlays">
</g>
<g id="footer">
</g>
</svg>
