<?xml version="1.0" encoding="utf-8"?>
<!-- Generator: Adobe Illustrator 18.1.1, SVG Export Plug-In . SVG Version: 6.00 Build 0)  -->
<svg version="1.1" id="Layer_1" xmlns="http://www.w3.org/2000/svg" xmlns:xlink="http://www.w3.org/1999/xlink" x="0px" y="0px"
	 viewBox="280 130 400 300" enable-background="new 280 130 400 300" xml:space="preserve">
<rect x="280" y="130" fill="#F1F2F2" width="400" height="300"/>
<g>
	<g>
		<path fill="#A4CF5F" d="M313.6,320.1c5,2.6,16.6,5.9,19.7,10.9c3.2,5.6,1.8,12.6,6.3,16.9c2.6,1.8,6.3,3.2,10,2.6
			c3.2-0.6,6.3-0.6,8.8-1.8c8.2-3.7,16.9-8.2,26.4-6.9c11.9,1.8,24,6.9,35.8,3.2c8.2-3.2,15.8-7.6,24-10.7
			c7.6-2.6,15.8-3.2,22.6-6.9c3.7-2.6,6.3-6.9,7.6-11.4c1.2-5.4,1-10-0.2-15l0.5-0.2c4.8-2.6,8.5-4.1,11.7-8.6
			c3.3-4.3,4.6-9.7,5.5-14.9c0.9-5.6,1.4-11.9-0.4-17.4c-1.6-4.9-4.8-8.5-8.7-11.8c-2.3-2-1.1-4.8-2.4-7.5c-0.9-2-3.4-4.6-6-5
			l-0.5-0.2c-0.2-2.7-0.2-5.5-0.1-8.3c0.1-4.6,0.8-9.2-0.3-13.8c-2.1-8.2-7.4-15.7-12.1-22.5c-4.6-6.6-10-12.8-16.4-17.8
			c-3.3-2.6-7-4.4-10.1-7.2c-3-2.6-5.4-5.8-8-8.8c-2.5-2.7-5.6-7-9.7-7.1c-2.4-0.1-3.9,1.4-5.6,2.6c-1.8,1.2-3.6,2.2-5.6,2.9
			c-7.5,2.9-15.7,2.4-23.3,0c-3.9-1.2-7.6-3.9-11.6-4.2c-4-0.3-8.1,1.6-11.1,4.1c-6.2,5-7.4,15.2-6.7,22.5l0.2,0.2
			c-0.2,0.1-0.4,0.1-0.4,0.1c-1.6,0.7-3.2,1.4-4.6,2.4l0.3-0.3c-6.8-1.3-13.6-2.6-20.4-3.9c-6.5-1.2-11.5,0.3-15.6,5.6
			c-3.9,4.9-6,10.7-7.1,16.7c-0.6,3.1-1.1,6-2.6,8.8l-0.2-0.3c-0.5,0.4-9.2,8.9-9.8,9.6c-1.3,1.3-1.8,2.6-2.6,4.4
			c-1.3,3.2-1.8,5.6-2.6,8.8c-0.6,5-1.3,9.5-0.6,14.5c3.2,27.7,4.4,56,19.5,79.9c2.3-0.6,4.1-2.2,5.6-4.1"/>
	</g>
	<g>
		<g>
			<path fill="#231F20" d="M319.1,306.1c10.3,18.1,27.4,28.7,47.9,31.8c20.9,3.2,43.7,0.6,61.4-11.1c1.1-0.7,0.1-2.4-1-1.7
				c-17.4,11.5-39.5,14-59.8,10.9c-19.9-3-36.6-13.2-46.7-30.8C320.2,304,318.5,305,319.1,306.1L319.1,306.1z"/>
		</g>
	</g>
	<g>
		<g>
			<path fill="#231F20" d="M318,223.4c-8,13.1-10.7,28.2-10,43.5c0.1,1.3,2.1,1.3,2,0c-0.6-14.9,2-29.6,9.8-42.4
				C320.4,223.4,318.7,222.4,318,223.4L318,223.4z"/>
		</g>
	</g>
	<g>
		<g>
			<path fill="#231F20" d="M321.6,227.4c1.8,14,1.5,32.2,12.3,42.9c5,4.9,11.5,7.1,17.7,9.9c7.6,3.4,12.7,7.7,16.2,15.4
				c2.9,6.4,5.4,11.1,11.4,14.9c4,2.6,7.5,5.4,10.8,8.8c2.6,2.6,4.8,5.9,7.6,8.3c4.1,3.7,9.8,4.1,15,2.9c4.1-1,8-4.1,12.2-4.1
				c3.6,0,7.1,1.8,10.7,0.7c1.2-0.4,0.7-2.3-0.5-1.8c-3.9,1.3-7.9-1.1-11.8-0.7c-3.1,0.3-5.6,2.3-8.5,3.3c-3.3,1.2-7.1,2-10.7,1.1
				c-4.2-1.1-6.5-4.3-9.2-7.4c-4.5-5.1-9.6-9.2-15.2-12.9c-6.7-4.4-8.1-11-11.6-17.6c-6.2-11.5-19.7-12.1-29.2-19.2
				c-13.4-10-13-29.2-15-44.1C323.4,226.1,321.4,226.1,321.6,227.4L321.6,227.4z"/>
		</g>
	</g>
	<g>
		<g>
			<path fill="#231F20" d="M355.1,176.6c-0.5-7.1,0.2-15.7,5.5-20.9c3.6-3.6,9.1-5.4,14.1-4c3.9,1.1,7.2,3.3,11,4.3
				c7,1.8,14.5,2,21.3-0.7c2.9-1.1,5.2-3.2,7.9-4.4c5.9-2.7,9.8,3.3,13.1,7.1c2.6,3,5,6,8.1,8.5c2.9,2.4,6.1,4.1,9.1,6.4
				c7.2,5.6,12.8,12.8,18.1,20.2c5.4,7.9,10.8,16.3,10.7,26.1c-0.1,8.4-0.6,16.4,1.2,24.5c2.3,10.5,5.8,20.9,6.1,31.6
				c0.2,6.3-1.7,15.8-6.7,20.3c-1,0.9,0.5,2.3,1.4,1.4c3.5-3.2,6.2-10.3,7-15c1.6-9.2-1.1-19.3-3.3-28.2c-1.4-5.5-3-11.1-3.6-16.8
				c-0.6-5.4-0.3-10.8-0.1-16.3c0.4-9.6-3.3-17.4-8.5-25.3c-5.2-8-11-15.8-18.2-22.2c-3.3-2.9-7-5-10.6-7.7
				c-4.3-3.2-7.5-7.5-11-11.5c-4.6-5.3-8.8-8.2-15.2-4.1c-10.1,6.5-21.8,6.2-32.6,1.4c-7.7-3.3-15.5-3.4-21.4,3.4
				c-4.9,5.7-5.7,14.2-5.2,21.4C353.2,177.8,355.2,177.9,355.1,176.6L355.1,176.6z"/>
		</g>
	</g>
	<g>
		<g>
			<path fill="#231F20" d="M462.5,295.7c-2.6,1.5-5.7,1.6-8.8,1.4c-1.3-0.1-1.3,1.8,0,2c3.3,0.1,6.7,0,9.8-1.7
				C464.7,296.7,463.7,295,462.5,295.7L462.5,295.7z"/>
		</g>
	</g>
	<g>
		<g>
			<path fill="#231F20" d="M313.3,320.3c6,2.9,14.6,4.5,18.8,10c4.8,5.9,1.6,15.7,9.6,19.4c6.5,3.1,14.4,0.6,20.5-2.3
				c5.1-2.4,10.3-4.6,15.9-5.3c6.2-0.8,12.2,1,18.2,2.4c9.6,2.1,18.7,3.3,28-0.6c9.1-3.9,17.5-8.9,27.2-11.2
				c7.9-1.8,16.6-3.2,21.4-10.6c3.7-5.8,4-12.6,3.6-19.2c-0.2-4.1-0.1-12.6-3.7-15.5c-4.4-3.5-8.6,6.4-10.7,8.4
				c-0.9,0.9,0.5,2.3,1.4,1.4c1.8-1.8,2.9-4,4.3-5.9c1.1-1.5,3-2.6,4.4-1.3c0.8,0.8,1,2.9,1.2,4c1.3,5.6,1.5,11.7,1,17.4
				c-0.3,3.9-1.5,7.4-3.6,10.6c-3.2,4.4-8.1,6-13.1,7.4c-7.4,2-14.5,3.7-21.5,7c-8.5,4-16.5,8.8-26.1,8.5
				c-8.6-0.3-16.6-3.4-25.1-4.5c-7.2-0.9-14.2,1.4-20.7,4.2c-7.7,3.3-22.3,9.7-26.4-1.8c-2.1-5.7-1.6-11.8-6.8-15.8
				c-5-3.7-11.4-5.4-16.9-8.1C313.2,318,312.2,319.8,313.3,320.3L313.3,320.3z"/>
		</g>
	</g>
	<g>
		<g>
			<path fill="#231F20" d="M476.3,300.2c6.1-3.2,11-5.9,14.1-12.4c3.2-6.7,4.4-15.4,3.9-22.6c-0.6-7.6-4-12.2-8.9-17.5
				c-1.8-2-2.1-2.6-2.6-5.3c-0.3-1.5-0.6-2.7-1.4-4.1c-1.4-2.3-3.5-3.7-6-4.4c-1.2-0.4-1.8,1.6-0.5,1.8c6.7,2,4.8,9.2,9.1,13.2
				c5.5,5.3,8.4,10.9,8.4,18.8c0,6.7-1.2,14.5-4.4,20.5c-3,5.4-7.5,7.6-12.7,10.2C474.2,299.1,475.2,300.8,476.3,300.2L476.3,300.2z
				"/>
		</g>
	</g>
	<g>
		<g>
			<path fill="#231F20" d="M319.1,305.1c-2,4.3-3.3,9.1-6.1,13c-0.6,0.9-2.4,3.3-3.7,3.6c-2.1,0.4-2.6-1.8-3.3-3.3
				c-1.8-3.3-3.5-6.9-4.9-10.5c-5.2-13.3-7.6-27.5-9.3-41.6c-1.7-13.8-4.8-28.6-0.7-42.3c2.2-7.3,8-13.2,13.3-18.4
				c0.9-0.9-0.5-2.3-1.4-1.4c-3.9,3.6-8.8,8.3-11.5,12.9c-6,10.2-4.5,23.5-3.3,34.7c2.6,24.8,5.3,50.2,18.7,72
				c0.2,0.4,0.7,0.6,1.1,0.5c7.7-2.6,9.9-11.6,12.8-18.3C321.4,304.9,319.7,304,319.1,305.1L319.1,305.1z"/>
		</g>
	</g>
	<g>
		<g>
			<path fill="#231F20" d="M349.8,177.9c-8-1.5-16.7-4.4-24.9-4.2c-5.7,0.1-10,3.3-13.1,7.8c-4.8,6.8-4.9,14.2-7.6,21.6
				c-1.7,4.8-5.4,8.1-8,12.3c-1.8,3-3.3,6.3-4.1,9.8c-3.4,13.9,2.1,27.9,11.4,38.1c5,5.6,11,9.2,17.1,13.6c5.1,3.6,3.6,9,2.6,14.5
				c-1,4.8-2.6,9.6-4.1,14.2c-0.4,1.2,1.5,1.7,1.8,0.5c2.5-7.2,5.3-15.2,5.2-23c-0.1-4.9-2.7-6.7-6.6-9.2
				c-13.2-8.5-25.1-21.1-26.4-37.5c-0.7-8.9,2.1-16.8,7.5-23.8c1.8-2.4,3.7-4.8,4.9-7.5c1.4-3.2,1.7-6.5,2.5-9.9
				c1.8-7.5,6.1-17.7,14.6-19.3c4.5-0.9,9.3,0.7,13.8,1.5c4.3,0.8,8.7,1.7,13,2.5C350.5,180.1,351,178.2,349.8,177.9L349.8,177.9z"
				/>
		</g>
	</g>
	<g>
		<g>
			<path fill="#231F20" d="M456.4,285.9c-3.3,9.7-7.1,19.1-11.4,28.3c-1.5,3.2-3.1,6.3-4.8,9.5c-0.8,1.4-1.6,2.7-2.5,4.1
				c-0.4,0.6-0.8,1.5-1.3,2.1c-1.2,1.5-0.4,1.8-0.4-0.4c0-2.3,0.6-3.7-0.3-6.1c-1.2-3.1-3.4-4.9-6.2-6.6c-5.3-3.3-7.1-6.8-9.2-12.6
				c-1.5-3.9-3.1-7.6-4.9-11.2c-3.5-6.5-8.3-11.6-14.9-15.2c-4.2-2.3-8.7-4.1-12.2-7.5c-3.3-3.3-5.6-7.6-8.6-11.4
				c-4.5-5.7-10.8-9.6-18.1-10.6c-4-0.5-7.7,0.2-11.5,0.5c-7.2,0.7-11.5-2.1-15.3-8c-2-3.1-3.6-6.2-6-9.1c-2.4-2.9-5.2-4.8-7.9-7.3
				c-1.1-1.1-2.1-2.3-3.5-2.7c-3.1-1-7.5,2.6-9.7,0.1c-5.1-6.4,8.2-17.8,12.5-21.7c7.9-6.8,17.3-11.5,25.5-17.5
				c7.8-5.7,16-8.1,25.6-8c15.9,0.1,33,2.6,48,8.1c17.4,6.3,32.3,19.6,38.5,37.3C465.5,241.1,464.3,265.4,456.4,285.9
				c-0.5,1.2,1.5,1.7,1.8,0.5c12.9-33.3,8.4-77.8-23.8-98.4c-14.2-9.2-31.5-12.4-48.2-14.3c-8.3-1-17.1-1.8-25.3-0.1
				c-10,2.3-17.4,8.7-25.9,14c-8.5,5.3-17.4,10.8-23.8,18.7c-2.9,3.5-8.9,9.3-6.8,14.5c0.7,1.7,2.6,4.1,4.6,4.4
				c1.5,0.2,3-0.9,4.2-1.3c2.6-0.7,4.1,0.1,5.8,1.8c3.1,2.7,6.4,5.3,8.9,8.7c2.6,3.4,4.4,7.4,7.1,10.7c6.4,8.2,14.1,4.9,23.2,5
				c5.7,0.1,11.4,2.2,15.8,5.7c4.1,3.3,6.5,8,9.7,12c6.2,8.1,15.9,9.9,23.1,16.7c7.2,6.9,9.7,16.4,13.6,25.2
				c2.4,5.1,5.2,6.4,9.7,9.5c3.3,2.4,4.6,5.7,4.1,9.7c-0.1,1-0.6,2.2-0.3,3.2c2.1,5.4,7.9-7.2,8.6-8.6c6.3-11.7,11.5-24.4,15.7-37.1
				C458.7,285.2,456.8,284.8,456.4,285.9z"/>
		</g>
	</g>
</g>
<g>
	<g>
		<path fill="#231F20" d="M383.4,342c0,10,0.1,19.9,0.1,29.9c0,4.8,0,9.7,0.1,14.5c0,2.6,0.3,5.2,0,7.7c-0.3,3.3-2.6,2.1-5.3,1.8
			c0.1,0.7,0.2,1.3,0.3,2c2.2-0.7,4.3-0.8,6.2-2.3c1-0.8-0.4-2.2-1.4-1.4c-1.5,1.2-3.5,1.2-5.3,1.8c-1.1,0.3-0.9,1.8,0.3,2
			c1.8,0.1,5.7,1.3,7.1-0.7c1-1.6,0.3-5.3,0.2-7c0-3.3,0-6.4,0-9.7c0-12.8-0.1-25.7-0.1-38.5C385.3,340.7,383.4,340.7,383.4,342
			L383.4,342z"/>
	</g>
</g>
<g>
	<g>
		<path fill="#231F20" d="M407,346.9c-0.8,12.2-0.2,24.4,1.8,36.6c0.7,4.1,1.8,19.6,9.8,14.9c0.9-0.5,0.5-1.8-0.5-1.8
			c-2,0.1-3.5-0.6-4.8-2.2c-0.9-0.9-2.3,0.5-1.4,1.4c1.8,1.8,3.6,2.6,6.2,2.7c-0.2-0.6-0.3-1.2-0.5-1.8c-5,3.1-6.2-9.9-6.6-11.9
			c-0.8-4.3-1.4-8.6-1.8-12.9c-0.8-8.3-0.8-16.6-0.3-24.8C409.1,345.6,407.1,345.6,407,346.9L407,346.9z"/>
	</g>
</g>
<g>
	<g>
		<g>
			<path fill="#1F1C1D" d="M379.3,292.6c1.3,0,1.3-2,0-2C378,290.7,378,292.6,379.3,292.6L379.3,292.6z"/>
		</g>
	</g>
	<g>
		<g>
			<path fill="#1F1C1D" d="M406.1,289.5c1.3,0,1.3-2,0-2C404.8,287.5,404.8,289.5,406.1,289.5L406.1,289.5z"/>
		</g>
	</g>
	<g>
		<g>
			<path fill="#1F1C1D" d="M388.2,309.9c2.6,0.8,5.7,2.2,8.5,1.6c2.6-0.6,4.4-2.7,5.9-4.8c0.8-1-1-2-1.7-1c-1.7,2.2-3.5,4.3-6.5,3.9
				c-1.8-0.3-3.9-1.1-5.6-1.6C387.5,307.7,386.9,309.6,388.2,309.9L388.2,309.9z"/>
		</g>
	</g>
</g>
<g>
	<g>
		<path fill="#1F1C1D" d="M501.1,286.8c-3.5,4.1-9,4.1-14,4.1c-1.3,0-1.3,2,0,2c5.5,0.1,11.5-0.2,15.4-4.6
			C503.4,287.3,502,285.9,501.1,286.8L501.1,286.8z"/>
	</g>
</g>
<g>
	<g>
		<path fill="#1F1C1D" d="M321.2,322.4c-4.6,5.3-6.6,12.3-7.1,19.2c-0.1,1.3,1.8,1.3,2,0c0.4-6.4,2.3-12.9,6.5-17.8
			C323.4,322.8,322.1,321.4,321.2,322.4L321.2,322.4z"/>
	</g>
</g>
<g>
	<path fill="#9E2064" d="M524.3,335.8c3.3,3.2,11.4,8.5,12.5,13.1c1.1,5.1-1.6,10.1,0.8,14.6c1.5,2.1,4.1,4,7.1,4.3
		c2.6,0.3,5,1,7.2,0.7c7.2-1,15-2.3,22,1c8.8,4.3,16.7,11,26.8,10.9c4.5-0.3,9.1-3.7,13.5-4.4c2.5-0.4,10.5-0.3,12.9,0.5
		c6.1,1.8,7.3,2.7,13.5,1.5c3.4-1,6.5-3.9,8.5-6.9c2.2-3.9,3.1-7.4,3.4-11.6l0.4-0.1c4.3-0.8,7.5-1.1,11-3.7
		c3.5-2.6,5.8-6.3,7.8-10.1c2.1-4.1,3.9-8.9,3.9-13.5c0-4.1-1.7-7.7-3.9-11.1c-1.3-2.1,0.3-3.9-0.1-6.3c-0.2-1.8,2-8.9,0.2-9.8
		c0,0,0.9-9.2,1.1-12.9c0.4-6.8-2-13.8-4-20.2c-2-6.2-4.6-12.2-8.3-17.6c-1.8-2.7-4.3-5.1-6-8c-1.7-2.7-2.7-5.7-4.1-8.7
		c-1.2-2.6-2.6-6.7-5.7-7.8c-1.8-0.6-3.3,0.1-4.9,0.6c-1.6,0.5-3.3,0.8-4.9,0.9c-6.4,0.4-12.6-2-17.8-5.6c-2.6-1.8-4.9-4.8-7.9-6
		c-3-1.2-6.6-0.7-9.5,0.4c-3.1,1.2-11.5,3.3-17.5,5.4c-5.9,2.1-9.3,4.4-11.8,3.2c-4.8-2.5-8.9-2.5-13.3,0.6
		c-4.1,2.9-6.3,6.4-11.6,8.4c-2.4,0.9-7.9,4-7.9,4c-0.5,0.2-7.1,7.6-7.7,7.9c-1.3,0.7-2,8.8-3.3,11c-1.7,3.7-2.6,7.1-4,10.9
		c-3.7,11.7-6.3,23-6.2,32.7c0.1,19.1,6.4,32.2,7.5,31.4"/>
</g>
<g>
	<g>
		<path fill="#231F20" d="M534.8,335.5c1.5,3.6,6.9,7.1,9.8,9.6c7.4,6.4,15.4,12.3,24,17.2c7.9,4.4,16.7,8.4,25.9,8.7
			c7.1,0.2,14.9,0.3,21.9-1.1c1.3-0.2,0.7-2.2-0.5-1.8c-6.6,1.3-13.9,1.1-20.6,1c-9.2-0.1-18-4-25.7-8.4
			c-8.1-4.5-15.7-10.1-22.8-16.2c-2.6-2.3-8.9-6.6-10-9.3C536.3,333.8,534.5,334.3,534.8,335.5L534.8,335.5z"/>
	</g>
</g>
<g>
	<g>
		<path fill="#231F20" d="M550.6,262.5c-9.2,8.3-14.9,19.1-18.1,31c-0.3,1.2,1.6,1.8,1.8,0.5c3.1-11.6,8.6-22.1,17.5-30.1
			C553,263.1,551.5,261.7,550.6,262.5L550.6,262.5z"/>
	</g>
</g>
<g>
	<g>
		<path fill="#231F20" d="M552.4,266.4c-0.9,6.2,0.1,12.5,1.6,18.6c1.2,4.6,2.4,10.7,5.2,14.6c4.5,6.4,18.1,6.1,16.7,16.5
			c-0.8,6.6-6.5,10.5-6.3,17.4c0.2,5.5,2,11.2,5.9,15.2c2.5,2.6,5.6,4.4,7.9,7.2c2,2.3,2.6,5.3,4.9,7.3c3.4,2.9,8.7,3.9,13,4.2
			c2.2,0.2,7.6,0.7,8.5-2.2c0.7-2-0.3-5.7-0.1-7.9c0.1-2.4,0.3-4.6,0.6-7c0.1-1.3-1.8-1.3-2,0c-0.5,4-0.9,8-0.7,11.9
			c0.1,2.1,0.6,2.6-1.6,3.2c-2.3,0.6-5.1,0.1-7.4-0.2c-2.2-0.4-4.4-0.9-6.4-1.8c-3.3-1.5-4.1-3.4-5.8-6.4c-3.2-5-9.1-7.5-12.1-12.5
			c-3.6-6.1-4-13.5-0.2-19.4c2.2-3.3,4.2-7.6,3.4-11.7c-1.3-7-9.2-9.2-14.5-12.4c-4-2.5-5-7.6-6.3-11.8c-2.1-7-3.9-14.6-2.7-21.9
			C554.5,265.7,552.5,265.1,552.4,266.4L552.4,266.4z"/>
	</g>
</g>
<g>
	<g>
		<path fill="#231F20" d="M575.2,229.3c5.8-3.7,12.3-5.3,18.9-7c2.4-0.6,4.6-1.4,7-2.1c5.9-1.8,9.7,0.6,14,4.2
			c4.2,3.5,9.7,6.2,15.2,7c2.3,0.3,4.6,0.3,7,0c1.6-0.2,3.3-1.2,4.9-1.2c3.5-0.1,5.2,1.6,6.7,4.4c2.9,5.4,4.6,10.7,8.4,15.7
			c5.4,6.9,9,14.3,11.6,22.6c2.5,7.6,4.8,15.7,2.3,23.4c-2.1,6.3-4.3,12.2-4.9,18.8c-0.9,9.2-0.4,19-3.4,27.9
			c-1.6,4.5-5.7,10.8-10.2,13c-1.2,0.6-0.1,2.3,1,1.7c3.5-1.7,6.7-6.1,8.9-9.2c3.9-5.7,4.4-13.7,4.9-20.4c0.7-9.5,1.2-18.4,4.3-27.5
			c2.6-7.3,3.1-13.2,1.3-20.8c-2-8-4.8-16-8.8-23.2c-1.8-3.3-4.2-6.1-6.5-9.2c-2.7-3.6-4.3-7.7-6.1-11.7c-2.1-4.6-4.3-8.7-10-7.6
			c-5.1,1-9.5,2-14.7,0.4c-4.6-1.5-8.4-4-12-7c-6.2-5.3-10.8-4.1-18.2-2.1c-7.8,2.2-15.6,3.5-22.5,7.9
			C573,228.3,574.1,230,575.2,229.3L575.2,229.3z"/>
	</g>
</g>
<g>
	<g>
		<path fill="#231F20" d="M523.2,335.2c4.4,5.4,13.3,8.8,13.3,16.6c0,6.5-1.7,12.4,5.5,15.6c7.7,3.3,16,0,24,0.5
			c9.1,0.6,16.2,7.3,24.3,10.7c5.7,2.4,11.8,3.3,17.4,0.3c6.8-3.7,12.7-2.3,20.1-1.2c5.2,0.8,11.5,2.3,16.4-0.5
			c6-3.3,8.1-9.2,9.1-15.7c0.7-4.5,1-9.1,2.2-13.5c0.8-2.9,0.3-5.3,0.2-8.4c-0.1-5.2,4.3-10.1-0.8-14c-1-0.8-2,1-1,1.7
			c3.2,2.4,0.3,7.1-0.1,10c-0.3,2.1,0.1,4.1,0.2,6.1c0.1,3-1,5.5-1.5,8.4c-0.6,3.5-0.8,7.1-1.4,10.6c-1.3,7.9-5.9,14.6-14.6,14.2
			c-5.9-0.2-11.6-1.6-17.4-2.2c-4.6-0.5-7.9,0.3-11.8,2.5c-7.4,4.1-15.3,0.6-22.1-3.3c-5.6-3.1-10.7-6.8-17.3-7.6
			c-7.7-1-15.4,2.2-23.1,0.1c-11-3-3.3-13.4-7.6-20.4c-3.2-4.9-8.8-7.6-12.4-12C523.8,332.8,522.4,334.2,523.2,335.2L523.2,335.2z"
			/>
	</g>
</g>
<g>
	<g>
		<path fill="#231F20" d="M653.6,359.8c7.4-1.3,12.8-3.6,17.1-10.1c3.6-5.6,8-14.3,5.9-21.1c-1.1-3.5-3.3-6-3.4-9.9
			c-0.1-3,0.2-5.9,0.4-8.9c0.3-5.1,1.2-10.6,0.4-15.7c-0.2-1.3-2.1-0.7-1.8,0.5c1.5,8.9-2.6,18.3-0.6,27.2c0.6,2.6,2.5,4.6,3.2,7.2
			c1.5,4.9-1.2,11-3.3,15.4c-1.7,3.3-3.5,6.5-6.3,9c-3.4,3.1-7.6,3.7-11.9,4.5C651.8,358.1,652.4,360,653.6,359.8L653.6,359.8z"/>
	</g>
</g>
<g>
	<g>
		<path fill="#231F20" d="M524.8,334c-4.8-8.5-8-17.4-8.2-27.3c-0.3-10.9,2.7-21.7,6.3-31.9c3.2-9,3.6-18.6,9.5-26.6
			c4.5-6.1,10.9-9.6,18.1-11.7c1.2-0.4,0.7-2.3-0.5-1.8c-6.7,2.1-12.9,5.2-17.6,10.7c-7,8.1-7.3,17.8-10.7,27.3
			c-3.9,10.9-7.3,22.5-7,34.3c0.3,10.1,3.6,19.5,8.5,28.3C523.6,336.1,525.4,335.1,524.8,334L524.8,334z"/>
	</g>
</g>
<g>
	<g>
		<path fill="#231F20" d="M586.1,235.1c-4.3-2.3-8.8-4.8-13.1-6.9c-3.1-1.6-6.1-3.1-9.7-2.7c-5.8,0.5-10.7,5.6-13.8,10.1
			c-3,4.2-4.3,8.5-8.7,11.8c-3,2.3-5.9,4.1-8.3,7c-4,4.8-6,10.7-6.5,16.8c-0.5,7.7,1.8,15.2,5.5,21.8c3.3,5.8,7.3,10.8,9.5,17.3
			c1.7,5.1,2.9,11,1.2,16.4c-2.1,6.8-8.3,9.2-15,9.5c-1.3,0-1.3,2,0,2c8.9-0.3,16.2-4.5,17.4-13.8c1.5-10.6-3.7-20.2-9.2-28.7
			c-5.1-7.9-8.6-16.9-7.3-26.4c1.3-9.7,6.8-15.1,14.2-20.7c5.8-4.4,7.5-11.8,12.8-16.8c5.3-4.9,10.2-5.1,16.6-2
			c4.4,2.2,8.8,4.6,13.1,6.9C586.2,237.4,587.1,235.7,586.1,235.1L586.1,235.1z"/>
	</g>
</g>
<g>
	<g>
		<path fill="#231F20" d="M641.9,343.5c-6.1,8.6-13,16.8-20.5,24.2c-0.7,0.7-5.6,4.5-5.4,5.1c-0.1-0.2,1.3-2.6,1.4-3
			c0.3-1.2,0.2-2.5,0-3.6c-0.6-2.7-2.3-4.3-4.1-6.4c-4.1-4.8-3.6-9.3,0.1-14c3-3.7,6.8-7.6,6.8-12.7c0-2.5-0.9-4.8-2.2-6.7
			c-1.8-2.7-2.5-4.5-2.6-7.9c-0.1-6.1,0.8-12.2,0.9-18.3c0.1-3.7,0.4-8.4-2.6-11.2c-5.9-5.7-18.1-2.1-25-0.6
			c-4.1,0.9-8.9,2.6-13.2,2.5c-3.1-0.1-7.1-0.9-9.8-2.2c-5.4-2.5-5.8-7.8-7.4-12.7c-2.5-7.5-7.1-14.1-8.3-22.1
			c-0.4-2.4-0.1-3.6,1.8-5.1c1.7-1.3,4.1-2.2,6-3c4.8-2.2,10-3.3,15.1-4.8c9.2-2.5,17.4-6.2,27.2-3.6c8.1,2.1,15.9,5.7,23.3,9.6
			c16.4,8.5,30.9,20.8,34.6,39.9c3.6,19.4-4.1,41.5-16,56.6c-0.8,1,0.6,2.4,1.4,1.4c17.4-22,25-56.4,6.6-80
			c-9.3-11.9-23.4-19.3-37.2-25.1c-6-2.6-12.2-4.9-18.8-5.2c-8.4-0.4-16,3.2-24,5.3c-3.9,1-7.7,2.1-11.5,3.6
			c-2.6,1.1-7.3,2.5-9.2,4.8c-3.1,3.3-0.3,9.8,0.9,13.3c1,3,2.1,6,3.4,8.9c2,4.1,3.2,8.2,4.6,12.5c2.4,6.7,7.1,8.2,13.6,9.5
			c8.5,1.7,17.3-2.3,25.6-3.4c4.2-0.6,10.7-1.7,14.4,1.2c4.3,3.3,2.5,12.3,2.2,16.9c-0.4,5.2-1.8,11.9,0,17.1
			c1.1,3.3,4.2,5.4,4.1,9.2c-0.1,3.9-3,7.2-5.2,10c-3.6,4.5-6.8,8.6-3.7,14.4c2.5,4.6,8.1,7.3,5.5,13.4c-0.7,1.6-1.8,2.7-0.4,4.2
			c0.2,0.2,0.7,0.4,1,0.3c3.2-1.3,6-4.8,8.4-7.2c3.4-3.4,6.7-7.2,9.9-10.9c3.4-4.1,6.9-8.4,10-12.8
			C644.4,343.5,642.6,342.5,641.9,343.5z"/>
	</g>
</g>
<g>
	<g>
		<path fill="#231F20" d="M589.5,377.7c0,3.6,0,7.4,0,11c0,2.1,1.1,9-1.4,8.9c0.1,0.7,0.2,1.3,0.3,2c0.9-0.2,1.6-0.4,2.5-0.9
			c1.1-0.7,0.1-2.4-1-1.7c-0.6,0.3-1.3,0.5-2,0.7c-1.1,0.3-0.8,1.8,0.3,2c0.9,0.1,1.7,0.2,2.6,0c0.3-0.1,0.6-0.4,0.7-0.7
			c0.7-2.9,0.1-6.4,0.1-9.3c0-4,0-7.9,0-11.9C591.4,376.4,589.4,376.4,589.5,377.7L589.5,377.7z"/>
	</g>
</g>
<g>
	<g>
		<path fill="#231F20" d="M598.5,380.7c-0.2,3.2-1,21.7,5.3,18.9c1-0.4,0.4-1.8-0.5-1.8c-0.5-0.2-0.9-0.4-1.4-0.7
			c-0.9-0.9-2.4,0.5-1.4,1.4c0.9,0.8,1.6,1.1,2.7,1.2c-0.2-0.6-0.3-1.2-0.5-1.8c-1.8,0.8-2.5-15.4-2.4-17.3
			C600.6,379.5,598.6,379.5,598.5,380.7L598.5,380.7z"/>
	</g>
</g>
<g>
	<g>
		<g>
			<path fill="#1F1C1D" d="M581.5,330.6c1.3,0,1.3-2,0-2C580.3,328.6,580.3,330.6,581.5,330.6L581.5,330.6z"/>
		</g>
	</g>
	<g>
		<g>
			<path fill="#1F1C1D" d="M602.9,334.5c1.3,0,1.3-2,0-2S601.7,334.5,602.9,334.5L602.9,334.5z"/>
		</g>
	</g>
	<g>
		<path fill="#FFFFFF" d="M595.5,345.8c0.6,1.2,0.4,2.6-0.2,3.9c-0.6,1.2-1.5,2.2-2.5,3.1c-0.2,0.2-1.5,0.5-1.8,0.5
			c-2.2,0.2-4.3-0.7-5.2-2.6c-1-2.2-1.8-5-1.2-5.3c0.6-0.2,4.2,2.6,5.1,2.7c2.1,0.5,4.1-0.8,5.7-2"/>
		<g>
			<path fill="#1F1C1D" d="M594.5,346.1c1.1,3.2-2,6.7-5.2,6c-2-0.4-2.7-1.8-3.4-3.6c-0.2-0.5-0.3-1.3-0.5-1.8
				c0.1-0.8-0.1-0.9-0.8-0.4c0.2,0.1,0.4,0.2,0.5,0.3c0.8,0.9,3,2.1,4.1,2.5c2.4,0.8,4.8-0.8,6.6-2.1c1-0.7,0-2.5-1-1.7
				c-2,1.4-4,2.6-6.1,1.2c-1.1-0.7-2.3-1.8-3.5-2.1c-3.3-0.8-1.1,4.8-0.6,5.8c1.3,3.2,4.4,4.5,7.7,3.7c3.3-0.8,5.3-5.3,4.2-8.4
				C596,344.5,594.2,344.9,594.5,346.1L594.5,346.1z"/>
		</g>
	</g>
</g>
<g>
	<g>
		<path fill="#1F1C1D" d="M670.2,365.4c1.8-4.5-0.2-8.9-2.3-12.8c-0.6-1.1-2.3-0.1-1.7,1c1.8,3.5,3.6,7.3,2.1,11.4
			C667.9,366.1,669.8,366.6,670.2,365.4L670.2,365.4z"/>
	</g>
</g>
<g>
	<g>
		<path fill="#1F1C1D" d="M519.7,324c-4.9-1.6-9-5.2-11.9-9.3c-0.7-1-2.5,0-1.7,1c3.3,4.6,7.6,8.6,13.1,10.2
			C520.4,326.3,520.9,324.5,519.7,324L519.7,324z"/>
	</g>
</g>
</svg>
